<svg preserveAspectRatio="none" width="100%" height="100%" overflow="visible" style="display: block;" viewBox="0 0 55.9978 55.9978" fill="none" xmlns="http://www.w3.org/2000/svg">
<g id="Icon" filter="url(#filter0_d_0_41)">
<path d="M4 26.9989C4 13.7447 14.7447 3 27.9989 3V3C41.2532 3 51.9978 13.7447 51.9978 26.9989V26.9989C51.9978 40.2532 41.2532 50.9978 27.9989 50.9978V50.9978C14.7447 50.9978 4 40.2532 4 26.9989V26.9989Z" fill="var(--fill-0, #FFFDF5)"/>
<path id="Vector" d="M7.99982 24.999L27.9989 8.99973L47.998 24.999" stroke="var(--stroke-0, #FFA314)" stroke-width="2.99987" stroke-linecap="round" stroke-linejoin="round"/>
<path id="Vector_2" d="M13.9996 20.9992V44.9981H41.9983V20.9992" stroke="var(--stroke-0, #FFA314)" stroke-width="2.99987" stroke-linecap="round" stroke-linejoin="round"/>
<path id="Vector_3" d="M27.9993 40.999C32.4176 40.999 35.9993 37.4173 35.9993 32.999C35.9993 28.5807 32.4176 24.999 27.9993 24.999C23.581 24.999 19.9993 28.5807 19.9993 32.999C19.9993 37.4173 23.581 40.999 27.9993 40.999Z" fill="var(--fill-0, #FFA314)"/>
<path id="Vector_4" d="M27.9991 28.9988V36.9988M23.9991 32.9988H31.9991" stroke="var(--stroke-0, white)" stroke-width="2.99987" stroke-linecap="round" stroke-linejoin="round"/>
</g>
<defs>
<filter id="filter0_d_0_41" x="0" y="0" width="55.9978" height="55.9978" filterUnits="userSpaceOnUse" color-interpolation-filters="sRGB">
<feFlood flood-opacity="0" result="BackgroundImageFix"/>
<feColorMatrix in="SourceAlpha" type="matrix" values="0 0 0 0 0 0 0 0 0 0 0 0 0 0 0 0 0 0 127 0" result="hardAlpha"/>
<feOffset dy="1"/>
<feGaussianBlur stdDeviation="2"/>
<feColorMatrix type="matrix" values="0 0 0 0 0 0 0 0 0 0 0 0 0 0 0 0 0 0 0.15 0"/>
<feBlend mode="normal" in2="BackgroundImageFix" result="effect1_dropShadow_0_41"/>
<feBlend mode="normal" in="SourceGraphic" in2="effect1_dropShadow_0_41" result="shape"/>
</filter>
</defs>
</svg>
