<svg preserveAspectRatio="none" width="100%" height="100%" overflow="visible" style="display: block;" viewBox="0 0 23.9989 23.9989" fill="none" xmlns="http://www.w3.org/2000/svg">
<g id="Icon" clip-path="url(#clip0_0_63)">
<path id="Vector" d="M14 2H6C5.46957 2 4.96086 2.21071 4.58579 2.58579C4.21071 2.96086 4 3.46957 4 4V20C4 20.5304 4.21071 21.0391 4.58579 21.4142C4.96086 21.7893 5.46957 22 6 22H18C18.5304 22 19.0391 21.7893 19.4142 21.4142C19.7893 21.0391 20 20.5304 20 20V8L14 2Z" stroke="var(--stroke-0, #5E8A82)" stroke-width="2.49989" stroke-linecap="round" stroke-linejoin="round"/>
<path id="Vector_2" d="M13.9994 1.99991V5.99991C13.9994 6.53034 14.2101 7.03905 14.5852 7.41412C14.9602 7.7892 15.4689 7.99991 15.9994 7.99991H19.9994" stroke="var(--stroke-0, #5E8A82)" stroke-width="2.49989" stroke-linecap="round" stroke-linejoin="round"/>
<path id="Vector_3" d="M8.9996 14.9994L10.9996 16.9994L14.9996 12.9994" stroke="var(--stroke-0, #5E8A82)" stroke-width="2.49989" stroke-linecap="round" stroke-linejoin="round"/>
</g>
<defs>
<clipPath id="clip0_0_63">
<rect width="23.9989" height="23.9989" fill="white"/>
</clipPath>
</defs>
</svg>
