<svg preserveAspectRatio="none" width="100%" height="100%" overflow="visible" style="display: block;" viewBox="0 0 27.9954 27.9954" fill="none" xmlns="http://www.w3.org/2000/svg">
<g id="Icon" clip-path="url(#clip0_0_24)">
<path id="Vector" d="M16.3307 2.33295H6.99886C6.38012 2.33295 5.78673 2.57875 5.34921 3.01626C4.9117 3.45377 4.66591 4.04717 4.66591 4.66591V23.3295C4.66591 23.9483 4.9117 24.5417 5.34921 24.9792C5.78673 25.4167 6.38012 25.6625 6.99886 25.6625H20.9966C21.6153 25.6625 22.2087 25.4167 22.6462 24.9792C23.0837 24.5417 23.3295 23.9483 23.3295 23.3295V9.33182L16.3307 2.33295Z" stroke="var(--stroke-0, white)" stroke-width="2.91619" stroke-linecap="round" stroke-linejoin="round"/>
<path id="Vector_2" d="M16.3307 2.33295V9.33182H23.3295" stroke="var(--stroke-0, white)" stroke-width="2.91619" stroke-linecap="round" stroke-linejoin="round"/>
<path id="Vector_3" d="M18.6636 15.1642H9.33182" stroke="var(--stroke-0, white)" stroke-width="2.91619" stroke-linecap="round" stroke-linejoin="round"/>
<path id="Vector_4" d="M18.6636 19.8301H9.33182" stroke="var(--stroke-0, white)" stroke-width="2.91619" stroke-linecap="round" stroke-linejoin="round"/>
<path id="Vector_5" d="M11.6648 10.4983H9.33182" stroke="var(--stroke-0, white)" stroke-width="2.91619" stroke-linecap="round" stroke-linejoin="round"/>
</g>
<defs>
<clipPath id="clip0_0_24">
<rect width="27.9954" height="27.9954" fill="white"/>
</clipPath>
</defs>
</svg>
