<svg preserveAspectRatio="none" width="100%" height="100%" overflow="visible" style="display: block;" viewBox="0 0 27.9954 27.9954" fill="none" xmlns="http://www.w3.org/2000/svg">
<g id="Icon">
<path id="Vector" d="M18.6636 12.8312C20.6 12.8312 22.1514 11.2682 22.1514 9.33182C22.1514 7.39546 20.6 5.83238 18.6636 5.83238C16.7273 5.83238 15.1642 7.39546 15.1642 9.33182C15.1642 11.2682 16.7273 12.8312 18.6636 12.8312ZM9.33182 12.8312C11.2682 12.8312 12.8196 11.2682 12.8196 9.33182C12.8196 7.39546 11.2682 5.83238 9.33182 5.83238C7.39546 5.83238 5.83238 7.39546 5.83238 9.33182C5.83238 11.2682 7.39546 12.8312 9.33182 12.8312ZM9.33182 15.1642C6.61392 15.1642 1.16648 16.529 1.16648 19.2469V22.1631H17.4972V19.2469C17.4972 16.529 12.0497 15.1642 9.33182 15.1642ZM18.6636 15.1642C18.3254 15.1642 17.9404 15.1875 17.5321 15.2225C18.8853 16.2024 19.8301 17.5205 19.8301 19.2469V22.1631H26.829V19.2469C26.829 16.529 21.3815 15.1642 18.6636 15.1642Z" fill="var(--fill-0, white)"/>
</g>
</svg>
