<svg preserveAspectRatio="none" width="100%" height="100%" overflow="visible" style="display: block;" viewBox="0 0 19.9925 19.9925" fill="none" xmlns="http://www.w3.org/2000/svg">
<g id="Icon">
<path id="Vector" d="M17.4934 9.57974C17.4963 10.6792 17.2394 11.7638 16.7437 12.7452C16.156 13.9212 15.2524 14.9104 14.1342 15.6019C13.0161 16.2934 11.7275 16.6599 10.4128 16.6604C9.31329 16.6633 8.22868 16.4064 7.24728 15.9107L2.49906 17.4934L4.0818 12.7452C3.5861 11.7638 3.32922 10.6792 3.33208 9.57974C3.33259 8.26503 3.69912 6.97643 4.39062 5.85826C5.08212 4.7401 6.07127 3.83654 7.24728 3.24878C8.22868 2.75308 9.31329 2.4962 10.4128 2.49906H10.8293C12.5656 2.59485 14.2055 3.32772 15.4352 4.55734C16.6648 5.78696 17.3977 7.42693 17.4934 9.16323V9.57974Z" stroke="var(--stroke-0, white)" stroke-width="1.66604" stroke-linecap="round" stroke-linejoin="round"/>
</g>
</svg>
