<svg preserveAspectRatio="none" width="100%" height="100%" overflow="visible" style="display: block;" viewBox="0 0 27.9954 27.9954" fill="none" xmlns="http://www.w3.org/2000/svg">
<g id="Icon" clip-path="url(#clip0_0_14)">
<path id="Vector" d="M19.8301 24.496V22.1631C19.8301 20.9256 19.3385 19.7388 18.4635 18.8638C17.5885 17.9887 16.4017 17.4972 15.1642 17.4972H5.83238C4.59491 17.4972 3.40812 17.9887 2.53309 18.8638C1.65806 19.7388 1.16648 20.9256 1.16648 22.1631V24.496" stroke="var(--stroke-0, #E8920E)" stroke-width="2.91619" stroke-linecap="round" stroke-linejoin="round"/>
<path id="Vector_2" d="M10.4983 12.8312C13.0752 12.8312 15.1642 10.7422 15.1642 8.16534C15.1642 5.58843 13.0752 3.49943 10.4983 3.49943C7.92138 3.49943 5.83238 5.58843 5.83238 8.16534C5.83238 10.7422 7.92138 12.8312 10.4983 12.8312Z" stroke="var(--stroke-0, #E8920E)" stroke-width="2.91619" stroke-linecap="round" stroke-linejoin="round"/>
<path id="Vector_3" d="M26.829 24.496V22.1631C26.8282 21.1292 26.4841 20.125 25.8507 19.3079C25.2173 18.4908 24.3305 17.9072 23.3295 17.6488" stroke="var(--stroke-0, #E8920E)" stroke-width="2.91619" stroke-linecap="round" stroke-linejoin="round"/>
<path id="Vector_4" d="M18.6636 3.65107C19.6673 3.90805 20.5569 4.49175 21.1921 5.31017C21.8274 6.12858 22.1722 7.13514 22.1722 8.17117C22.1722 9.2072 21.8274 10.2138 21.1921 11.0322C20.5569 11.8506 19.6673 12.4343 18.6636 12.6913" stroke="var(--stroke-0, #E8920E)" stroke-width="2.91619" stroke-linecap="round" stroke-linejoin="round"/>
</g>
<defs>
<clipPath id="clip0_0_14">
<rect width="27.9954" height="27.9954" fill="white"/>
</clipPath>
</defs>
</svg>
