<svg preserveAspectRatio="none" width="100%" height="100%" overflow="visible" style="display: block;" viewBox="0 0 55.9978 55.9978" fill="none" xmlns="http://www.w3.org/2000/svg">
<g id="Icon" filter="url(#filter0_d_0_46)">
<g clip-path="url(#clip0_0_46)">
<path d="M4 26.9989C4 13.7447 14.7447 3 27.9989 3V3C41.2532 3 51.9978 13.7447 51.9978 26.9989V26.9989C51.9978 40.2532 41.2532 50.9978 27.9989 50.9978V50.9978C14.7447 50.9978 4 40.2532 4 26.9989V26.9989Z" fill="var(--fill-0, #FFFDF5)"/>
<path id="Vector" d="M29.9988 10.9996H19.9993C17.7902 10.9996 15.9995 12.7904 15.9995 14.9995V38.9984C15.9995 41.2074 17.7902 42.9982 19.9993 42.9982H29.9988C32.2079 42.9982 33.9987 41.2074 33.9987 38.9984V14.9995C33.9987 12.7904 32.2079 10.9996 29.9988 10.9996Z" stroke="var(--stroke-0, #FFA314)" stroke-width="2.99987" stroke-linecap="round" stroke-linejoin="round"/>
<path id="Vector_2" d="M24.9991 38.9986C26.1037 38.9986 26.9991 38.1031 26.9991 36.9986C26.9991 35.894 26.1037 34.9986 24.9991 34.9986C23.8946 34.9986 22.9991 35.894 22.9991 36.9986C22.9991 38.1031 23.8946 38.9986 24.9991 38.9986Z" fill="var(--fill-0, #FFA314)"/>
<path id="Vector_3" d="M24.9991 26.9991L35.9991 40.9991H43.9991C43.9991 40.9991 41.9991 30.9991 35.9991 22.9991L24.9991 26.9991Z" fill="var(--fill-0, #FFA314)"/>
<path id="Vector_4" d="M37.9985 14.9995C41.9985 14.9995 45.9985 18.9995 45.9985 22.9995" stroke="var(--stroke-0, #FFA314)" stroke-width="2.99987" stroke-linecap="round" stroke-linejoin="round" stroke-dasharray="4 4"/>
<path id="Vector_5" d="M41.9983 18.9993L45.9983 22.9993L49.9983 18.9993" stroke="var(--stroke-0, #FFA314)" stroke-width="2.99987" stroke-linecap="round" stroke-linejoin="round"/>
</g>
</g>
<defs>
<filter id="filter0_d_0_46" x="0" y="0" width="55.9978" height="55.9978" filterUnits="userSpaceOnUse" color-interpolation-filters="sRGB">
<feFlood flood-opacity="0" result="BackgroundImageFix"/>
<feColorMatrix in="SourceAlpha" type="matrix" values="0 0 0 0 0 0 0 0 0 0 0 0 0 0 0 0 0 0 127 0" result="hardAlpha"/>
<feOffset dy="1"/>
<feGaussianBlur stdDeviation="2"/>
<feColorMatrix type="matrix" values="0 0 0 0 0 0 0 0 0 0 0 0 0 0 0 0 0 0 0.15 0"/>
<feBlend mode="normal" in2="BackgroundImageFix" result="effect1_dropShadow_0_46"/>
<feBlend mode="normal" in="SourceGraphic" in2="effect1_dropShadow_0_46" result="shape"/>
</filter>
<clipPath id="clip0_0_46">
<path d="M4 26.9989C4 13.7447 14.7447 3 27.9989 3V3C41.2532 3 51.9978 13.7447 51.9978 26.9989V26.9989C51.9978 40.2532 41.2532 50.9978 27.9989 50.9978V50.9978C14.7447 50.9978 4 40.2532 4 26.9989V26.9989Z" fill="white"/>
</clipPath>
</defs>
</svg>
