<svg preserveAspectRatio="none" width="100%" height="100%" overflow="visible" style="display: block;" viewBox="0 0 55.9978 55.9978" fill="none" xmlns="http://www.w3.org/2000/svg">
<g id="Icon" filter="url(#filter0_d_0_37)">
<path d="M4 26.9989C4 13.7447 14.7447 3 27.9989 3V3C41.2532 3 51.9978 13.7447 51.9978 26.9989V26.9989C51.9978 40.2532 41.2532 50.9978 27.9989 50.9978V50.9978C14.7447 50.9978 4 40.2532 4 26.9989V26.9989Z" fill="var(--fill-0, #FFFDF5)"/>
<path id="Vector" d="M27.9992 26.9995C31.3129 26.9995 33.9992 24.3132 33.9992 20.9995C33.9992 17.6858 31.3129 14.9995 27.9992 14.9995C24.6855 14.9995 21.9992 17.6858 21.9992 20.9995C21.9992 24.3132 24.6855 26.9995 27.9992 26.9995Z" fill="var(--fill-0, #5E8A82)"/>
<path id="Vector_2" d="M17.9994 44.9987V34.9987C17.9994 30.9987 21.9994 30.9987 27.9994 30.9987C33.9994 30.9987 37.9994 30.9987 37.9994 34.9987V44.9987" fill="var(--fill-0, #5E8A82)"/>
<path id="Vector_3" d="M27.9993 6.99982L29.9993 12.9998H35.9993L30.9993 16.9998L32.9993 22.9998L27.9993 18.9998L22.9993 22.9998L24.9993 16.9998L19.9993 12.9998H25.9993L27.9993 6.99982Z" fill="var(--fill-0, #FFA314)"/>
</g>
<defs>
<filter id="filter0_d_0_37" x="0" y="0" width="55.9978" height="55.9978" filterUnits="userSpaceOnUse" color-interpolation-filters="sRGB">
<feFlood flood-opacity="0" result="BackgroundImageFix"/>
<feColorMatrix in="SourceAlpha" type="matrix" values="0 0 0 0 0 0 0 0 0 0 0 0 0 0 0 0 0 0 127 0" result="hardAlpha"/>
<feOffset dy="1"/>
<feGaussianBlur stdDeviation="2"/>
<feColorMatrix type="matrix" values="0 0 0 0 0 0 0 0 0 0 0 0 0 0 0 0 0 0 0.15 0"/>
<feBlend mode="normal" in2="BackgroundImageFix" result="effect1_dropShadow_0_37"/>
<feBlend mode="normal" in="SourceGraphic" in2="effect1_dropShadow_0_37" result="shape"/>
</filter>
</defs>
</svg>
