<svg preserveAspectRatio="none" width="100%" height="100%" overflow="visible" style="display: block;" viewBox="0 0 23.9989 23.9989" fill="none" xmlns="http://www.w3.org/2000/svg">
<g id="Icon" clip-path="url(#clip0_0_40)">
<path id="Vector" d="M11.9997 1.99991V21.9999M16.9997 4.99991H9.49973C8.57147 4.99991 7.68123 5.36866 7.02486 6.02504C6.36848 6.68141 5.99973 7.57165 5.99973 8.49991C5.99973 9.42817 6.36848 10.3184 7.02486 10.9748C7.68123 11.6312 8.57147 11.9999 9.49973 11.9999H14.4997C15.428 11.9999 16.3182 12.3687 16.9746 13.025C17.631 13.6814 17.9997 14.5717 17.9997 15.4999C17.9997 16.4282 17.631 17.3184 16.9746 17.9748C16.3182 18.6312 15.428 18.9999 14.4997 18.9999H5.99973" stroke="var(--stroke-0, white)" stroke-width="2.99987" stroke-linecap="round" stroke-linejoin="round"/>
</g>
<defs>
<clipPath id="clip0_0_40">
<rect width="23.9989" height="23.9989" fill="white"/>
</clipPath>
</defs>
</svg>
